<?xml version="1.0" encoding="UTF-8" standalone="no"?>
<!-- Created with Inkscape (http://www.inkscape.org/) -->

<svg
   xmlns:dc="http://purl.org/dc/elements/1.1/"
   xmlns:cc="http://creativecommons.org/ns#"
   xmlns:rdf="http://www.w3.org/1999/02/22-rdf-syntax-ns#"
   xmlns:svg="http://www.w3.org/2000/svg"
   xmlns="http://www.w3.org/2000/svg"
   xmlns:sodipodi="http://sodipodi.sourceforge.net/DTD/sodipodi-0.dtd"
   xmlns:inkscape="http://www.inkscape.org/namespaces/inkscape"
   width="1000"
   height="500"
   viewBox="0 0 264.58332 132.29167"
   version="1.1"
   id="svg8"
   enable-background="new"
   sodipodi:docname="logo.svg"
   inkscape:version="0.92.2 2405546, 2018-03-11"
   inkscape:export-filename="/home/oxford/logo_color.png"
   inkscape:export-xdpi="150"
   inkscape:export-ydpi="150">
  <defs
     id="defs2" />
  <sodipodi:namedview
     id="base"
     pagecolor="#ffffff"
     bordercolor="#666666"
     borderopacity="1.0"
     inkscape:pageopacity="0.0"
     inkscape:pageshadow="2"
     inkscape:zoom="1"
     inkscape:cx="351.46348"
     inkscape:cy="155.60185"
     inkscape:document-units="mm"
     inkscape:current-layer="layer1"
     showgrid="false"
     units="px"
     inkscape:showpageshadow="false"
     inkscape:snap-intersection-paths="false"
     inkscape:measure-start="905,199.286"
     inkscape:measure-end="632.608,205.819"
     inkscape:pagecheckerboard="true"
     inkscape:window-width="1920"
     inkscape:window-height="1025"
     inkscape:window-x="0"
     inkscape:window-y="0"
     inkscape:window-maximized="1"
     showguides="false" />
  <metadata
     id="metadata5">
    <rdf:RDF>
      <cc:Work
         rdf:about="">
        <dc:format>image/svg+xml</dc:format>
        <dc:type
           rdf:resource="http://purl.org/dc/dcmitype/StillImage" />
        <dc:title></dc:title>
      </cc:Work>
    </rdf:RDF>
  </metadata>
  <g
     inkscape:label="Layer 1"
     inkscape:groupmode="layer"
     id="layer1"
     style="display:inline"
     transform="translate(0,-164.70832)">
    <path
       id="flowRoot10"
       style="font-style:normal;font-weight:normal;font-size:406.66668701px;line-height:1.25;font-family:sans-serif;text-align:center;letter-spacing:0px;word-spacing:0px;text-anchor:middle;opacity:1;fill:#8b8b8b;fill-opacity:1;stroke:none;stroke-width:0.39239752"
       d="m 46.904113,212.71159 c -5.273823,0 -8.569831,3.35049 -9.888286,10.05262 l -7.580932,37.74085 -11.04222,-45.98118 H 3.2297769 l 17.7999471,62.62667 c 0.878969,3.18626 1.977983,5.49373 3.296439,6.92206 1.318457,1.31844 3.130615,1.97714 5.437911,1.97714 4.834337,0 7.910957,-3.24052 9.22941,-9.72292 l 7.74578,-38.07055 6.757212,35.59783 c 1.538198,8.13049 5.054111,12.19564 10.547676,12.19564 2.527043,0 4.504644,-0.82363 5.932971,-2.47169 1.538198,-1.64806 2.912094,-4.55925 4.120679,-8.73434 L 90.248754,214.52388 H 74.097802 l -10.05365,47.13459 -7.416602,-39.05911 c -1.208585,-6.59229 -4.449614,-9.88777 -9.723437,-9.88777 z m 72.276207,0.82372 c -4.61459,0 -8.95411,0.93357 -13.01936,2.80138 -3.95511,1.86782 -7.306339,4.55961 -10.053132,8.07548 -2.307299,2.85666 -4.01106,5.87882 -5.109766,9.06508 -0.988843,3.18628 -1.482598,7.03099 -1.482598,11.53573 v 39.88335 h 16.150946 v -35.26865 c 0,-3.95537 0.1652,-6.92203 0.49455,-8.89971 0.43949,-2.08757 1.15365,-3.9552 2.1425,-5.60328 1.09871,-1.75794 2.63702,-3.13131 4.61471,-4.12016 2.08756,-1.09871 4.22956,-1.64744 6.427,-1.64744 2.19743,0 4.28549,0.54873 6.26318,1.64744 1.97769,1.0987 3.46052,2.52708 4.44934,4.28501 0.98885,1.75794 1.64804,3.79052 1.97766,6.09782 0.43949,2.19741 0.6599,5.32903 0.6599,9.39426 v 34.11471 h 16.15044 v -38.7289 c 0,-5.3837 -0.49427,-9.66878 -1.48311,-12.85503 -0.8787,-3.18629 -2.5817,-6.2634 -5.10874,-9.22993 -2.85667,-3.40601 -6.26312,-5.98783 -10.21849,-7.74578 -3.95537,-1.86781 -8.24044,-2.80138 -12.85503,-2.80138 z m 138.45563,0.3297 c -8.89958,0 -15.76647,2.52685 -20.60081,7.58093 -4.72447,5.0541 -7.08691,12.41525 -7.08691,22.08392 v 41.36647 h 16.15147 v -37.08145 c 0,-3.40605 0.22043,-6.20774 0.65991,-8.40518 0.54937,-2.19742 1.37245,-3.95512 2.47117,-5.27358 1.2086,-1.42831 2.80187,-2.47236 4.77955,-3.13159 1.97768,-0.65923 4.50505,-1.09851 7.58145,-1.31826 v -15.65641 c -0.87897,-0.10994 -1.64813,-0.16485 -2.30735,-0.16485 z m -80.4907,1.68569 c -0.20193,0.0751 -0.40173,0.15755 -0.60254,0.23667 0.0875,0.049 0.1756,0.0999 0.262,0.14573 0.11338,-0.12647 0.22651,-0.25138 0.34054,-0.3824 z"
       inkscape:connector-curvature="0" />
  </g>
  <g
     inkscape:groupmode="layer"
     id="layer5"
     inkscape:label="Layer 2"
     style="display:inline">
    <path
       id="flowRoot10-7"
       transform="scale(0.26458333)"
       style="font-style:normal;font-weight:normal;font-size:406.66668701px;line-height:1.25;font-family:sans-serif;text-align:center;letter-spacing:0px;word-spacing:0px;text-anchor:middle;display:inline;opacity:1;fill:#f7931a;fill-opacity:1;stroke:none;stroke-width:1.48307729"
       d="m 794.43164,38.785156 c -0.24508,89.002334 0.0544,178.001434 0.50204,267.001914 0.82485,5.43681 1.35065,11.12431 1.36524,15.79297 0,10.79686 -2.07587,20.76084 -6.22852,29.89648 -3.73738,9.13588 -9.13583,17.23349 -16.19531,24.29297 -6.64414,7.05944 -14.53225,12.66576 -23.66797,16.81836 -9.13568,3.73735 -18.89386,5.60547 -29.27539,5.60547 -10.79679,0 -20.97047,-1.86812 -30.52148,-5.60547 -9.13573,-4.1526 -17.23549,-9.75892 -24.29493,-16.81836 -7.05943,-7.05948 -12.66573,-15.15709 -16.81835,-24.29297 -3.73732,-9.55098 -5.60547,-19.72474 -5.60547,-30.52148 0,-10.79686 1.86815,-20.76065 5.60547,-29.89649 4.15262,-9.5509 9.55116,-17.65077 16.19531,-24.29492 7.05951,-7.05951 15.15916,-12.45796 24.29492,-16.19531 9.55102,-4.15257 19.93245,-6.22656 31.14453,-6.22656 10.79675,0 20.76268,2.07399 29.89844,6.22656 9.55094,3.73735 17.64687,9.1358 24.29101,16.19531 2.79239,2.79228 5.30924,5.8618 7.58399,9.17188 0.008,-0.001 0.0219,-0.004 0.0332,-0.004 -0.33789,-12.06448 -0.22193,-26.84253 -0.0977,-39.85352 0.16668,-17.30417 0.35194,-31.48422 -0.48046,-32.0039 -20.85117,-13.01911 -42.71542,-19.5293 -65.5918,-19.5293 -18.27152,0 -35.50394,3.73629 -51.69922,11.21094 -16.19516,7.05944 -30.3149,16.81756 -42.35742,29.27539 -12.0426,12.45785 -21.8027,26.99408 -29.27734,43.60352 -7.05941,16.19523 -10.58594,33.63552 -10.58594,52.32226 0,18.68686 3.52653,36.33673 10.58594,52.94727 7.47464,16.61045 17.44253,31.1457 29.90039,43.60351 12.45785,12.45789 26.99305,22.42374 43.60351,29.89844 17.02579,7.05944 34.88354,10.58789 53.57031,10.58789 22.83942,0 44.43248,-5.39849 64.7793,-16.19531 20.7631,-11.21208 37.16643,-26.1628 49.20899,-44.84961 4.15255,-6.64411 7.47525,-13.07967 9.96679,-19.3086 2.90687,-6.22789 5.18855,-13.07999 6.84961,-20.55468 1.66099,-7.88996 2.69998,-16.61108 3.11524,-26.16211 0.83058,-9.96525 1.24414,-21.5925 1.24414,-34.88086 V 38.785156 Z"
       inkscape:connector-curvature="0"
       sodipodi:nodetypes="ccccccscccscscsccccccscccscccscccccscc" />
    <path
       inkscape:connector-curvature="0"
       id="rect9190-5"
       style="display:inline;opacity:0;fill:#ffffff;fill-opacity:0.99624059;stroke-width:0.1;stroke-miterlimit:4;stroke-dasharray:none"
       d="m 180.30682,69.550278 v 10.45879 c 0.0621,0.0915 0.0709,0.21096 0.0186,0.33486 0.011,0.0172 0.0216,0.0347 0.031,0.0527 0.009,0.0178 0.0174,0.0359 0.0253,0.0543 0.008,0.0178 0.0143,0.0361 0.0207,0.0543 0.006,0.017 0.0114,0.0338 0.0165,0.0512 0.005,0.0171 0.009,0.0348 0.0134,0.0522 0.004,0.0166 0.007,0.0328 0.0103,0.0496 0.003,0.0158 0.005,0.0321 0.007,0.0481 0.002,0.0173 0.004,0.0343 0.006,0.0517 2.2e-4,0.004 1.9e-4,0.008 5.2e-4,0.0114 0.0288,0.0245 0.0557,0.0511 0.0786,0.0811 0.0407,0.0551 0.0633,0.119 0.0765,0.18552 0.01,0.0555 0.004,0.11024 -0.008,0.16433 0.007,0.0103 0.0129,0.0205 0.0191,0.031 0.008,0.0145 0.0164,0.0291 0.0243,0.0439 0.008,0.0145 0.0154,0.0292 0.0227,0.0439 0.008,0.0161 0.0156,0.0324 0.0233,0.0486 0.007,0.0157 0.0149,0.0313 0.0222,0.047 0.008,0.0172 0.016,0.0344 0.0238,0.0517 0.008,0.0181 0.0164,0.0361 0.0243,0.0543 0.008,0.0182 0.0157,0.0365 0.0233,0.0548 0.007,0.0177 0.0144,0.0354 0.0217,0.0532 0.007,0.0168 0.0138,0.0333 0.0207,0.0501 0.006,0.0154 0.0122,0.0311 0.0186,0.0465 0.006,0.0145 0.012,0.029 0.0181,0.0434 0.005,0.0122 0.0106,0.024 0.016,0.0362 0.005,0.0104 0.009,0.0207 0.0139,0.031 0.005,0.011 0.0109,0.0222 0.016,0.0331 0.004,0.008 0.008,0.016 0.0114,0.0238 0.003,0.006 0.005,0.0109 0.008,0.0165 0.003,0.005 0.005,0.0107 0.008,0.016 0.005,0.0101 0.01,0.0201 0.0139,0.0305 0.0713,0.17054 0.003,0.23144 -0.1323,0.31988 0.0166,0.0297 0.033,0.0567 0.0496,0.0853 0.0373,-0.0204 0.0765,-0.035 0.11731,-0.0393 0.007,-7.9e-4 0.0138,7.9e-4 0.0207,5.3e-4 v -12.77184 z m 0.14676,11.3807 c -0.003,0.0363 -0.008,0.0712 -0.0145,0.10387 0.0168,0.0107 0.035,0.0189 0.0501,0.032 0.002,0.001 0.003,0.003 0.005,0.005 -5e-5,-0.001 3e-5,-0.003 0,-0.004 -0.001,-0.0145 -0.003,-0.0291 -0.007,-0.0434 -0.008,-0.0322 -0.0178,-0.0635 -0.0331,-0.093 z" />
  </g>
</svg>
